<?xml version="1.0" encoding="UTF-8" standalone="no"?>
<svg version="1.1" xmlns="http://www.w3.org/2000/svg" style="font-family: Arial; " width="800" height="450" viewBox="0 0 800 450"><title>Number of Heroes (Jan 31)</title><defs><clipPath id="chart-clipPath-exact"><rect height="256" width="621"></rect></clipPath><clipPath id="chart-clipPath-buffer"><rect x="-10" y="-10" height="276" width="641"></rect></clipPath></defs><g class="scaler"><rect width="800" height="450" fill="rgb(255, 255, 255)" fill-opacity="1"></rect><g class="canvas" transform="translate(94,98)"><g class="grid"><g class="axis-grid y2" transform="translate(620,0)"></g><g class="axis-grid y" transform="translate(1,0)"></g><g class="axis-grid x" transform="translate(0,255)"></g><g class="axis-grid x2" transform="translate(0,1)"></g></g><rect class="trigger-layer" height="379" width="702" opacity="0"></rect><g class="chart"><g class="series s0"><path class="line" clip-path="url(#chart-clipPath-exact)" visibility="visible" fill="none" stroke="rgb(0, 52, 146)" stroke-opacity="1" stroke-width="4" d="M2,232.06498333333332Q7.4241758241758244,231.953435,8.780219780219781,231.92105C10.814285714285715,231.87247250000001,13.526373626373628,231.93258583333332,15.560439560439562,231.74113333333332S20.306593406593404,231.345105,22.34065934065934,230.6447S27.08681318681319,228.33795666666666,29.120879120879124,227.07176666666666S33.86703296703296,223.3626258333333,35.9010989010989,222.20343333333332S40.64725274725274,220.49729416666668,42.68131868131868,219.34381666666667S47.42747252747253,216.03726583333332,49.46153846153847,214.51358333333332S54.20769230769231,210.56991583333334,56.24175824175825,209.18593333333334S60.987912087912086,206.43924083333334,63.02197802197802,205.28703333333334S67.76813186813186,202.4986425,69.8021978021978,201.50455S74.54835164835164,199.6379675,76.58241758241758,198.65975S81.32857142857142,196.1073675,83.36263736263736,194.9831S88.1087912087912,192.42034583333333,90.14285714285714,191.1646333333333S94.889010989011,187.6460983333333,96.92307692307693,186.6116833333333S101.66923076923077,185.1883308333333,103.7032967032967,184.26853333333332S108.44945054945056,181.59031499999998,110.4835164835165,180.47969999999998S115.22967032967033,177.8883708333333,117.26373626373626,176.86443333333332S122.00989010989011,174.5770575,124.04395604395604,173.65345S128.7901098901099,171.51985,130.82417582417582,170.70704999999998S135.57032967032967,168.94249083333332,137.6043956043956,168.23478333333333S142.35054945054947,166.65987749999996,144.3846153846154,165.98899999999998S149.13076923076923,164.42076166666666,151.16483516483515,163.76226666666668S155.91098901098903,162.19561583333333,157.94505494505495,161.59903333333332S162.6912087912088,160.2673325,164.72527472527472,159.78505S169.4714285714286,158.78704166666665,171.5054945054945,158.38381666666666S176.25164835164836,157.49852083333332,178.28571428571428,157.09688333333332S183.03186813186812,156.37838083333332,185.06593406593407,155.70623333333333S189.81208791208795,153.53538,191.84615384615387,152.6159S196.5923076923077,150.50441916666668,198.62637362637363,149.57636666666667S203.37252747252748,147.33471083333333,205.4065934065934,146.42888333333332S210.15274725274725,144.45699666666664,212.1868131868132,143.53751666666665S216.93296703296707,141.18642916666667,218.967032967033,140.29901666666666S223.7131868131868,138.46217333333334,225.74725274725273,137.62143333333333S230.49340659340658,135.53355333333334,232.52747252747253,134.69408333333334S237.2736263736264,132.88539166666666,239.30769230769232,132.02496666666667S244.05384615384617,129.88215916666667,246.0879120879121,128.95791666666668S250.83406593406593,126.79934,252.86813186813185,125.86335S257.6142857142857,123.67810333333334,259.64835164835165,122.71798333333334S264.3945054945055,120.39219,266.42857142857144,119.46255S271.17472527472523,117.39350833333332,273.2087912087912,116.52038333333331S277.95494505494503,114.52531916666666,279.989010989011,113.64171666666667S284.7351648351648,111.48948999999999,286.7692307692308,110.62969999999999S291.5153846153846,108.71274083333334,293.54945054945057,107.90978333333334S298.29560439560436,106.04499999999999,300.3296703296703,105.27664999999999S305.07582417582415,103.520875,307.1098901098901,102.78745S311.85604395604395,101.10851,313.8901098901099,100.38714999999999S318.63626373626374,98.70958583333334,320.6703296703297,97.97838333333334S325.4164835164835,96.20588666666666,327.45054945054943,95.51246666666665S332.1967032967033,93.95153083333332,334.2307692307692,93.35558333333333S338.9769230769231,92.09352083333332,341.010989010989,91.53948333333332S345.75714285714287,90.2081,347.7912087912088,89.662S352.5373626373626,88.38236916666668,354.57142857142856,87.89881666666668S359.3175824175824,86.85868666666666,361.35164835164835,86.43831666666665S366.0978021978022,85.488145,368.13186813186815,85.09635S372.87802197802193,84.15845499999999,374.9120879120879,83.82634999999999S379.6582417582418,83.16298666666667,381.69230769230774,82.88231666666667S386.4384615384615,82.23239416666665,388.4725274725275,81.95521666666664S393.2186813186813,81.33196416666665,395.25274725274727,81.03446666666665S399.9989010989011,80.31384749999998,402.03296703296706,79.97189999999998S406.77912087912085,79.13803916666667,408.8131868131868,78.75481666666667S413.5593406593407,77.86539333333333,415.59340659340666,77.41708333333332S420.33956043956044,76.25598583333331,422.3736263736264,75.76608333333331S427.1197802197802,74.64763666666666,429.15384615384613,74.15106666666665S433.90000000000003,72.95567916666666,435.934065934066,72.45561666666666S440.6802197802198,71.25927666666666,442.7142857142857,70.81731666666667S447.4604395604395,69.99372166666667,449.49450549450546,69.50921666666667S454.24065934065936,68.22799833333332,456.2747252747253,67.58728333333332S461.0208791208791,65.89500833333331,463.05494505494505,65.23778333333331S467.80109890109884,63.833163333333324,469.8351648351648,63.20578333333333S474.5813186813187,61.6956475,476.61538461538464,61.05525S481.36153846153843,59.55305166666666,483.3956043956044,58.93646666666666S488.1417582417582,57.50729333333333,490.1758241758242,56.94468333333333S494.921978021978,55.608960833333335,496.95604395604397,55.18573333333333S501.70219780219776,54.499404166666665,503.7362637362637,54.12316666666666S508.4824175824176,53.14738333333333,510.51648351648356,52.67748333333333S515.2626373626374,51.47691,517.2967032967033,50.9905S522.0428571428572,49.88655249999998,524.0769230769231,49.43474999999998S528.823076923077,48.47981583333334,530.8571428571429,47.978483333333344S535.6032967032968,46.69800583333334,537.6373626373627,46.092533333333336S542.3835164835165,44.643039999999985,544.4175824175824,43.94199999999998S549.1637362637364,42.12981583333331,551.1978021978023,41.418933333333314S555.9439560439561,39.910808333333314,557.978021978022,39.202783333333315S562.7241758241759,37.41536416666667,564.7582417582418,36.69876666666667S569.5043956043957,35.10396416666667,571.5384615384615,34.425466666666665S576.2846153846154,32.85712249999999,578.3186813186813,32.175449999999984S583.0648351648352,30.57091083333332,585.0989010989011,29.88098333333332S589.845054945055,28.371905833333322,591.8791208791209,27.575933333333325S596.6252747252747,25.53462,598.6593406593406,24.5745S603.4054945054945,22.131760833333324,605.4395604395604,21.17513333333332S610.1857142857143,19.06375833333332,612.2197802197802,18.19698333333332Q613.5758241758242,17.619133333333323,619,15.396633333333341"></path><path class="point" clip-path="url(#chart-clipPath-buffer)" visibility="hidden" transform="translate(2,232.06498333333332)"></path><path class="point" clip-path="url(#chart-clipPath-buffer)" visibility="hidden" transform="translate(8.780219780219781,231.92105)"></path><path class="point" clip-path="url(#chart-clipPath-buffer)" visibility="hidden" transform="translate(15.560439560439562,231.74113333333332)"></path><path class="point" clip-path="url(#chart-clipPath-buffer)" visibility="hidden" transform="translate(22.34065934065934,230.6447)"></path><path class="point" clip-path="url(#chart-clipPath-buffer)" visibility="hidden" transform="translate(29.120879120879124,227.07176666666666)"></path><path class="point" clip-path="url(#chart-clipPath-buffer)" visibility="hidden" transform="translate(35.9010989010989,222.20343333333332)"></path><path class="point" clip-path="url(#chart-clipPath-buffer)" visibility="hidden" transform="translate(42.68131868131868,219.34381666666667)"></path><path class="point" clip-path="url(#chart-clipPath-buffer)" visibility="hidden" transform="translate(49.46153846153847,214.51358333333332)"></path><path class="point" clip-path="url(#chart-clipPath-buffer)" visibility="hidden" transform="translate(56.24175824175825,209.18593333333334)"></path><path class="point" clip-path="url(#chart-clipPath-buffer)" visibility="hidden" transform="translate(63.02197802197802,205.28703333333334)"></path><path class="point" clip-path="url(#chart-clipPath-buffer)" visibility="hidden" transform="translate(69.8021978021978,201.50455)"></path><path class="point" clip-path="url(#chart-clipPath-buffer)" visibility="hidden" transform="translate(76.58241758241758,198.65975)"></path><path class="point" clip-path="url(#chart-clipPath-buffer)" visibility="hidden" transform="translate(83.36263736263736,194.9831)"></path><path class="point" clip-path="url(#chart-clipPath-buffer)" visibility="hidden" transform="translate(90.14285714285714,191.1646333333333)"></path><path class="point" clip-path="url(#chart-clipPath-buffer)" visibility="hidden" transform="translate(96.92307692307693,186.6116833333333)"></path><path class="point" clip-path="url(#chart-clipPath-buffer)" visibility="hidden" transform="translate(103.7032967032967,184.26853333333332)"></path><path class="point" clip-path="url(#chart-clipPath-buffer)" visibility="hidden" transform="translate(110.4835164835165,180.47969999999998)"></path><path class="point" clip-path="url(#chart-clipPath-buffer)" visibility="hidden" transform="translate(117.26373626373626,176.86443333333332)"></path><path class="point" clip-path="url(#chart-clipPath-buffer)" visibility="hidden" transform="translate(124.04395604395604,173.65345)"></path><path class="point" clip-path="url(#chart-clipPath-buffer)" visibility="hidden" transform="translate(130.82417582417582,170.70704999999998)"></path><path class="point" clip-path="url(#chart-clipPath-buffer)" visibility="hidden" transform="translate(137.6043956043956,168.23478333333333)"></path><path class="point" clip-path="url(#chart-clipPath-buffer)" visibility="hidden" transform="translate(144.3846153846154,165.98899999999998)"></path><path class="point" clip-path="url(#chart-clipPath-buffer)" visibility="hidden" transform="translate(151.16483516483515,163.76226666666668)"></path><path class="point" clip-path="url(#chart-clipPath-buffer)" visibility="hidden" transform="translate(157.94505494505495,161.59903333333332)"></path><path class="point" clip-path="url(#chart-clipPath-buffer)" visibility="hidden" transform="translate(164.72527472527472,159.78505)"></path><path class="point" clip-path="url(#chart-clipPath-buffer)" visibility="hidden" transform="translate(171.5054945054945,158.38381666666666)"></path><path class="point" clip-path="url(#chart-clipPath-buffer)" visibility="hidden" transform="translate(178.28571428571428,157.09688333333332)"></path><path class="point" clip-path="url(#chart-clipPath-buffer)" visibility="hidden" transform="translate(185.06593406593407,155.70623333333333)"></path><path class="point" clip-path="url(#chart-clipPath-buffer)" visibility="hidden" transform="translate(191.84615384615387,152.6159)"></path><path class="point" clip-path="url(#chart-clipPath-buffer)" visibility="hidden" transform="translate(198.62637362637363,149.57636666666667)"></path><path class="point" clip-path="url(#chart-clipPath-buffer)" visibility="hidden" transform="translate(205.4065934065934,146.42888333333332)"></path><path class="point" clip-path="url(#chart-clipPath-buffer)" visibility="hidden" transform="translate(212.1868131868132,143.53751666666665)"></path><path class="point" clip-path="url(#chart-clipPath-buffer)" visibility="hidden" transform="translate(218.967032967033,140.29901666666666)"></path><path class="point" clip-path="url(#chart-clipPath-buffer)" visibility="hidden" transform="translate(225.74725274725273,137.62143333333333)"></path><path class="point" clip-path="url(#chart-clipPath-buffer)" visibility="hidden" transform="translate(232.52747252747253,134.69408333333334)"></path><path class="point" clip-path="url(#chart-clipPath-buffer)" visibility="hidden" transform="translate(239.30769230769232,132.02496666666667)"></path><path class="point" clip-path="url(#chart-clipPath-buffer)" visibility="hidden" transform="translate(246.0879120879121,128.95791666666668)"></path><path class="point" clip-path="url(#chart-clipPath-buffer)" visibility="hidden" transform="translate(252.86813186813185,125.86335)"></path><path class="point" clip-path="url(#chart-clipPath-buffer)" visibility="hidden" transform="translate(259.64835164835165,122.71798333333334)"></path><path class="point" clip-path="url(#chart-clipPath-buffer)" visibility="hidden" transform="translate(266.42857142857144,119.46255)"></path><path class="point" clip-path="url(#chart-clipPath-buffer)" visibility="hidden" transform="translate(273.2087912087912,116.52038333333331)"></path><path class="point" clip-path="url(#chart-clipPath-buffer)" visibility="hidden" transform="translate(279.989010989011,113.64171666666667)"></path><path class="point" clip-path="url(#chart-clipPath-buffer)" visibility="hidden" transform="translate(286.7692307692308,110.62969999999999)"></path><path class="point" clip-path="url(#chart-clipPath-buffer)" visibility="hidden" transform="translate(293.54945054945057,107.90978333333334)"></path><path class="point" clip-path="url(#chart-clipPath-buffer)" visibility="hidden" transform="translate(300.3296703296703,105.27664999999999)"></path><path class="point" clip-path="url(#chart-clipPath-buffer)" visibility="hidden" transform="translate(307.1098901098901,102.78745)"></path><path class="point" clip-path="url(#chart-clipPath-buffer)" visibility="hidden" transform="translate(313.8901098901099,100.38714999999999)"></path><path class="point" clip-path="url(#chart-clipPath-buffer)" visibility="hidden" transform="translate(320.6703296703297,97.97838333333334)"></path><path class="point" clip-path="url(#chart-clipPath-buffer)" visibility="hidden" transform="translate(327.45054945054943,95.51246666666665)"></path><path class="point" clip-path="url(#chart-clipPath-buffer)" visibility="hidden" transform="translate(334.2307692307692,93.35558333333333)"></path><path class="point" clip-path="url(#chart-clipPath-buffer)" visibility="hidden" transform="translate(341.010989010989,91.53948333333332)"></path><path class="point" clip-path="url(#chart-clipPath-buffer)" visibility="hidden" transform="translate(347.7912087912088,89.662)"></path><path class="point" clip-path="url(#chart-clipPath-buffer)" visibility="hidden" transform="translate(354.57142857142856,87.89881666666668)"></path><path class="point" clip-path="url(#chart-clipPath-buffer)" visibility="hidden" transform="translate(361.35164835164835,86.43831666666665)"></path><path class="point" clip-path="url(#chart-clipPath-buffer)" visibility="hidden" transform="translate(368.13186813186815,85.09635)"></path><path class="point" clip-path="url(#chart-clipPath-buffer)" visibility="hidden" transform="translate(374.9120879120879,83.82634999999999)"></path><path class="point" clip-path="url(#chart-clipPath-buffer)" visibility="hidden" transform="translate(381.69230769230774,82.88231666666667)"></path><path class="point" clip-path="url(#chart-clipPath-buffer)" visibility="hidden" transform="translate(388.4725274725275,81.95521666666664)"></path><path class="point" clip-path="url(#chart-clipPath-buffer)" visibility="hidden" transform="translate(395.25274725274727,81.03446666666665)"></path><path class="point" clip-path="url(#chart-clipPath-buffer)" visibility="hidden" transform="translate(402.03296703296706,79.97189999999998)"></path><path class="point" clip-path="url(#chart-clipPath-buffer)" visibility="hidden" transform="translate(408.8131868131868,78.75481666666667)"></path><path class="point" clip-path="url(#chart-clipPath-buffer)" visibility="hidden" transform="translate(415.59340659340666,77.41708333333332)"></path><path class="point" clip-path="url(#chart-clipPath-buffer)" visibility="hidden" transform="translate(422.3736263736264,75.76608333333331)"></path><path class="point" clip-path="url(#chart-clipPath-buffer)" visibility="hidden" transform="translate(429.15384615384613,74.15106666666665)"></path><path class="point" clip-path="url(#chart-clipPath-buffer)" visibility="hidden" transform="translate(435.934065934066,72.45561666666666)"></path><path class="point" clip-path="url(#chart-clipPath-buffer)" visibility="hidden" transform="translate(442.7142857142857,70.81731666666667)"></path><path class="point" clip-path="url(#chart-clipPath-buffer)" visibility="hidden" transform="translate(449.49450549450546,69.50921666666667)"></path><path class="point" clip-path="url(#chart-clipPath-buffer)" visibility="hidden" transform="translate(456.2747252747253,67.58728333333332)"></path><path class="point" clip-path="url(#chart-clipPath-buffer)" visibility="hidden" transform="translate(463.05494505494505,65.23778333333331)"></path><path class="point" clip-path="url(#chart-clipPath-buffer)" visibility="hidden" transform="translate(469.8351648351648,63.20578333333333)"></path><path class="point" clip-path="url(#chart-clipPath-buffer)" visibility="hidden" transform="translate(476.61538461538464,61.05525)"></path><path class="point" clip-path="url(#chart-clipPath-buffer)" visibility="hidden" transform="translate(483.3956043956044,58.93646666666666)"></path><path class="point" clip-path="url(#chart-clipPath-buffer)" visibility="hidden" transform="translate(490.1758241758242,56.94468333333333)"></path><path class="point" clip-path="url(#chart-clipPath-buffer)" visibility="hidden" transform="translate(496.95604395604397,55.18573333333333)"></path><path class="point" clip-path="url(#chart-clipPath-buffer)" visibility="hidden" transform="translate(503.7362637362637,54.12316666666666)"></path><path class="point" clip-path="url(#chart-clipPath-buffer)" visibility="hidden" transform="translate(510.51648351648356,52.67748333333333)"></path><path class="point" clip-path="url(#chart-clipPath-buffer)" visibility="hidden" transform="translate(517.2967032967033,50.9905)"></path><path class="point" clip-path="url(#chart-clipPath-buffer)" visibility="hidden" transform="translate(524.0769230769231,49.43474999999998)"></path><path class="point" clip-path="url(#chart-clipPath-buffer)" visibility="hidden" transform="translate(530.8571428571429,47.978483333333344)"></path><path class="point" clip-path="url(#chart-clipPath-buffer)" visibility="hidden" transform="translate(537.6373626373627,46.092533333333336)"></path><path class="point" clip-path="url(#chart-clipPath-buffer)" visibility="hidden" transform="translate(544.4175824175824,43.94199999999998)"></path><path class="point" clip-path="url(#chart-clipPath-buffer)" visibility="hidden" transform="translate(551.1978021978023,41.418933333333314)"></path><path class="point" clip-path="url(#chart-clipPath-buffer)" visibility="hidden" transform="translate(557.978021978022,39.202783333333315)"></path><path class="point" clip-path="url(#chart-clipPath-buffer)" visibility="hidden" transform="translate(564.7582417582418,36.69876666666667)"></path><path class="point" clip-path="url(#chart-clipPath-buffer)" visibility="hidden" transform="translate(571.5384615384615,34.425466666666665)"></path><path class="point" clip-path="url(#chart-clipPath-buffer)" visibility="hidden" transform="translate(578.3186813186813,32.175449999999984)"></path><path class="point" clip-path="url(#chart-clipPath-buffer)" visibility="hidden" transform="translate(585.0989010989011,29.88098333333332)"></path><path class="point" clip-path="url(#chart-clipPath-buffer)" visibility="hidden" transform="translate(591.8791208791209,27.575933333333325)"></path><path class="point" clip-path="url(#chart-clipPath-buffer)" visibility="hidden" transform="translate(598.6593406593406,24.5745)"></path><path class="point" clip-path="url(#chart-clipPath-buffer)" visibility="hidden" transform="translate(605.4395604395604,21.17513333333332)"></path><path class="point" clip-path="url(#chart-clipPath-buffer)" visibility="hidden" transform="translate(612.2197802197802,18.19698333333332)"></path><path class="point" clip-path="url(#chart-clipPath-buffer)" visibility="hidden" transform="translate(619,15.396633333333341)"></path></g><g class="series s1"><path class="line" clip-path="url(#chart-clipPath-exact)" visibility="visible" fill="none" stroke="rgb(245, 105, 145)" stroke-opacity="1" stroke-width="4" d="M2,241.46933333333334Q7.4241758241758244,247.70926666666668,8.780219780219781,248.24266666666668C10.814285714285715,249.0427666666667,13.526373626373628,252.51833333333335,15.560439560439562,246.80333333333334S20.306593406593404,230.5007666666667,22.34065934065934,210.14266666666668S27.08681318681319,133.7140666666667,29.120879120879124,111.08266666666668S33.86703296703296,54.98676666666668,35.9010989010989,59.26666666666668S40.64725274725274,139.38673333333335,42.68131868131868,139.61533333333335S47.42747252747253,75.59886666666668,49.46153846153847,60.79066666666668S54.20769230769231,35.306000000000004,56.24175824175825,40.894000000000005S60.987912087912086,88.77300000000001,63.02197802197802,98.04400000000001S67.76813186813186,96.37606666666667,69.8021978021978,102.70066666666668S74.54835164835164,139.573,76.58241758241758,140.208S81.32857142857142,112.776,83.36263736263736,106.934S88.1087912087912,106.51913333333334,90.14285714285714,101.26133333333334S94.889010989011,63.030100000000004,96.92307692307693,71.882S101.66923076923077,155.6893,103.7032967032967,160.274S108.44945054945056,110.07936666666666,110.4835164835165,102.44666666666666S115.22967032967033,105.92223333333332,117.26373626373626,109.38933333333333S122.00989010989011,121.5474666666667,124.04395604395604,125.56066666666669S128.7901098901099,131.7117,130.82417582417582,136.144S135.57032967032967,150.90563333333333,137.6043956043956,155.10933333333332S142.35054945054947,162.6954666666667,144.3846153846154,164.1686666666667S149.13076923076923,164.43536666666668,151.16483516483515,164.93066666666667S155.91098901098903,164.99416666666667,157.94505494505495,167.47066666666666S162.6912087912088,176.86866666666666,164.72527472527472,181.44066666666666S169.4714285714286,194.78836666666666,171.5054945054945,197.95066666666668S176.25164835164836,202.45916666666668,178.28571428571428,202.52266666666668S183.03186813186812,209.1944,185.06593406593407,198.374S189.81208791208795,140.27996666666667,191.84615384615387,130.38666666666666S196.5923076923077,132.7615666666667,198.62637362637363,132.4186666666667S203.37252747252748,127.21166666666666,205.4065934065934,128.10066666666665S210.15274725274725,138.89143333333334,212.1868131868132,138.34533333333334S216.93296703296707,123.1773,218.967032967033,124.46000000000001S223.7131868131868,145.0297666666667,225.74725274725273,146.89666666666668S230.49340659340658,136.8552,232.52747252747253,136.906S237.2736263736264,148.07353333333333,239.30769230769232,147.23533333333333S244.05384615384617,133.87069999999997,246.0879120879121,131.31799999999998S250.83406593406593,130.68723333333332,252.86813186813185,130.21733333333333S257.6142857142857,129.15053333333336,259.64835164835165,128.18533333333335S264.3945054945055,122.56346666666667,266.42857142857144,123.78266666666667S271.17472527472523,134.05273333333332,273.2087912087912,136.31333333333333S277.95494505494503,139.27243333333334,279.989010989011,138.85333333333335S284.7351648351648,132.56683333333336,286.7692307692308,133.51933333333335S291.5153846153846,142.9300333333333,293.54945054945057,145.20333333333332S298.29560439560436,147.29036666666667,300.3296703296703,148.67466666666667S305.07582417582415,153.03500000000003,307.1098901098901,154.43200000000002S311.85604395604395,157.5054,313.8901098901099,157.988S318.63626373626374,158.04303333333334,320.6703296703297,157.64933333333335S325.4164835164835,153.85203333333334,327.45054945054943,155.36333333333334S332.1967032967033,163.82576666666668,334.2307692307692,167.72466666666668S338.9769230769231,179.6796,341.010989010989,181.356S345.75714285714287,178.58316666666667,347.7912087912088,178.90066666666667S352.5373626373626,180.97076666666666,354.57142857142856,183.47266666666667S359.3175824175824,193.05270000000002,361.35164835164835,195.58S366.0978021978022,199.17833333333334,368.13186813186815,200.32133333333334S372.87802197802193,200.8124,374.9120879120879,203.2S379.6582417582418,214.18126666666666,381.69230769230774,216.23866666666666S386.4384615384615,216.7763,388.4725274725275,216.916S393.2186813186813,217.98280000000003,395.25274725274727,217.17000000000002S399.9989010989011,213.27533333333332,402.03296703296706,211.49733333333333S406.77912087912085,206.96766666666667,408.8131868131868,205.31666666666666S413.5593406593407,203.09416666666667,415.59340659340666,200.49066666666667S420.33956043956044,189.62369999999999,422.3736263736264,187.95999999999998S427.1197802197802,189.66603333333333,429.15384615384613,189.39933333333335S433.90000000000003,186.32170000000002,435.934065934066,186.18200000000002S440.6802197802198,186.14390000000003,442.7142857142857,188.46800000000002S447.4604395604395,203.37779999999998,449.49450549450546,201.676S454.24065934065936,183.37106666666668,456.2747252747253,177.12266666666667S461.0208791208791,160.6804,463.05494505494505,160.01999999999998S467.80109890109884,171.5262,469.8351648351648,172.72S474.5813186813187,168.49936666666667,476.61538461538464,167.97866666666667S481.36153846153843,168.2961666666667,483.3956043956044,169.24866666666668S488.1417582417582,172.16966666666667,490.1758241758242,174.32866666666666S494.921978021978,178.0667,496.95604395604397,183.642S501.70219780219776,209.61773333333332,503.7362637362637,211.49733333333333S508.4824175824176,199.91916666666665,510.51648351648356,196.17266666666666S515.2626373626374,187.18106666666668,517.2967032967033,186.52066666666667S522.0428571428572,190.3857,524.0769230769231,191.77S528.823076923077,197.73053333333334,530.8571428571429,195.74933333333334S535.6032967032968,182.72760000000002,537.6373626373627,178.562S542.3835164835165,171.80136666666667,544.4175824175824,167.97866666666667S549.1637362637364,153.47103333333334,551.1978021978023,153.07733333333334S555.9439560439561,165.23969999999997,557.978021978022,165.35399999999998S562.7241758241759,154.18223333333336,564.7582417582418,153.83933333333334S569.5043956043957,161.54399999999998,571.5384615384615,163.06799999999998S576.2846153846154,164.12633333333335,578.3186813186813,163.99933333333334S583.0648351648352,162.55153333333334,585.0989010989011,162.22133333333335S589.845054945055,166.0398,591.8791208791209,161.798S596.6252747252747,140.5085666666667,598.6593406593406,133.9426666666667S603.4054945054945,117.88563333333332,605.4395604395604,118.02533333333332S610.1857142857143,131.27990000000003,612.2197802197802,134.87400000000002Q613.5758241758242,137.27006666666668,619,141.986"></path><path class="point" clip-path="url(#chart-clipPath-buffer)" visibility="hidden" transform="translate(2,241.46933333333334)"></path><path class="point" clip-path="url(#chart-clipPath-buffer)" visibility="hidden" transform="translate(8.780219780219781,248.24266666666668)"></path><path class="point" clip-path="url(#chart-clipPath-buffer)" visibility="hidden" transform="translate(15.560439560439562,246.80333333333334)"></path><path class="point" clip-path="url(#chart-clipPath-buffer)" visibility="hidden" transform="translate(22.34065934065934,210.14266666666668)"></path><path class="point" clip-path="url(#chart-clipPath-buffer)" visibility="hidden" transform="translate(29.120879120879124,111.08266666666668)"></path><path class="point" clip-path="url(#chart-clipPath-buffer)" visibility="hidden" transform="translate(35.9010989010989,59.26666666666668)"></path><path class="point" clip-path="url(#chart-clipPath-buffer)" visibility="hidden" transform="translate(42.68131868131868,139.61533333333335)"></path><path class="point" clip-path="url(#chart-clipPath-buffer)" visibility="hidden" transform="translate(49.46153846153847,60.79066666666668)"></path><path class="point" clip-path="url(#chart-clipPath-buffer)" visibility="hidden" transform="translate(56.24175824175825,40.894000000000005)"></path><path class="point" clip-path="url(#chart-clipPath-buffer)" visibility="hidden" transform="translate(63.02197802197802,98.04400000000001)"></path><path class="point" clip-path="url(#chart-clipPath-buffer)" visibility="hidden" transform="translate(69.8021978021978,102.70066666666668)"></path><path class="point" clip-path="url(#chart-clipPath-buffer)" visibility="hidden" transform="translate(76.58241758241758,140.208)"></path><path class="point" clip-path="url(#chart-clipPath-buffer)" visibility="hidden" transform="translate(83.36263736263736,106.934)"></path><path class="point" clip-path="url(#chart-clipPath-buffer)" visibility="hidden" transform="translate(90.14285714285714,101.26133333333334)"></path><path class="point" clip-path="url(#chart-clipPath-buffer)" visibility="hidden" transform="translate(96.92307692307693,71.882)"></path><path class="point" clip-path="url(#chart-clipPath-buffer)" visibility="hidden" transform="translate(103.7032967032967,160.274)"></path><path class="point" clip-path="url(#chart-clipPath-buffer)" visibility="hidden" transform="translate(110.4835164835165,102.44666666666666)"></path><path class="point" clip-path="url(#chart-clipPath-buffer)" visibility="hidden" transform="translate(117.26373626373626,109.38933333333333)"></path><path class="point" clip-path="url(#chart-clipPath-buffer)" visibility="hidden" transform="translate(124.04395604395604,125.56066666666669)"></path><path class="point" clip-path="url(#chart-clipPath-buffer)" visibility="hidden" transform="translate(130.82417582417582,136.144)"></path><path class="point" clip-path="url(#chart-clipPath-buffer)" visibility="hidden" transform="translate(137.6043956043956,155.10933333333332)"></path><path class="point" clip-path="url(#chart-clipPath-buffer)" visibility="hidden" transform="translate(144.3846153846154,164.1686666666667)"></path><path class="point" clip-path="url(#chart-clipPath-buffer)" visibility="hidden" transform="translate(151.16483516483515,164.93066666666667)"></path><path class="point" clip-path="url(#chart-clipPath-buffer)" visibility="hidden" transform="translate(157.94505494505495,167.47066666666666)"></path><path class="point" clip-path="url(#chart-clipPath-buffer)" visibility="hidden" transform="translate(164.72527472527472,181.44066666666666)"></path><path class="point" clip-path="url(#chart-clipPath-buffer)" visibility="hidden" transform="translate(171.5054945054945,197.95066666666668)"></path><path class="point" clip-path="url(#chart-clipPath-buffer)" visibility="hidden" transform="translate(178.28571428571428,202.52266666666668)"></path><path class="point" clip-path="url(#chart-clipPath-buffer)" visibility="hidden" transform="translate(185.06593406593407,198.374)"></path><path class="point" clip-path="url(#chart-clipPath-buffer)" visibility="hidden" transform="translate(191.84615384615387,130.38666666666666)"></path><path class="point" clip-path="url(#chart-clipPath-buffer)" visibility="hidden" transform="translate(198.62637362637363,132.4186666666667)"></path><path class="point" clip-path="url(#chart-clipPath-buffer)" visibility="hidden" transform="translate(205.4065934065934,128.10066666666665)"></path><path class="point" clip-path="url(#chart-clipPath-buffer)" visibility="hidden" transform="translate(212.1868131868132,138.34533333333334)"></path><path class="point" clip-path="url(#chart-clipPath-buffer)" visibility="hidden" transform="translate(218.967032967033,124.46000000000001)"></path><path class="point" clip-path="url(#chart-clipPath-buffer)" visibility="hidden" transform="translate(225.74725274725273,146.89666666666668)"></path><path class="point" clip-path="url(#chart-clipPath-buffer)" visibility="hidden" transform="translate(232.52747252747253,136.906)"></path><path class="point" clip-path="url(#chart-clipPath-buffer)" visibility="hidden" transform="translate(239.30769230769232,147.23533333333333)"></path><path class="point" clip-path="url(#chart-clipPath-buffer)" visibility="hidden" transform="translate(246.0879120879121,131.31799999999998)"></path><path class="point" clip-path="url(#chart-clipPath-buffer)" visibility="hidden" transform="translate(252.86813186813185,130.21733333333333)"></path><path class="point" clip-path="url(#chart-clipPath-buffer)" visibility="hidden" transform="translate(259.64835164835165,128.18533333333335)"></path><path class="point" clip-path="url(#chart-clipPath-buffer)" visibility="hidden" transform="translate(266.42857142857144,123.78266666666667)"></path><path class="point" clip-path="url(#chart-clipPath-buffer)" visibility="hidden" transform="translate(273.2087912087912,136.31333333333333)"></path><path class="point" clip-path="url(#chart-clipPath-buffer)" visibility="hidden" transform="translate(279.989010989011,138.85333333333335)"></path><path class="point" clip-path="url(#chart-clipPath-buffer)" visibility="hidden" transform="translate(286.7692307692308,133.51933333333335)"></path><path class="point" clip-path="url(#chart-clipPath-buffer)" visibility="hidden" transform="translate(293.54945054945057,145.20333333333332)"></path><path class="point" clip-path="url(#chart-clipPath-buffer)" visibility="hidden" transform="translate(300.3296703296703,148.67466666666667)"></path><path class="point" clip-path="url(#chart-clipPath-buffer)" visibility="hidden" transform="translate(307.1098901098901,154.43200000000002)"></path><path class="point" clip-path="url(#chart-clipPath-buffer)" visibility="hidden" transform="translate(313.8901098901099,157.988)"></path><path class="point" clip-path="url(#chart-clipPath-buffer)" visibility="hidden" transform="translate(320.6703296703297,157.64933333333335)"></path><path class="point" clip-path="url(#chart-clipPath-buffer)" visibility="hidden" transform="translate(327.45054945054943,155.36333333333334)"></path><path class="point" clip-path="url(#chart-clipPath-buffer)" visibility="hidden" transform="translate(334.2307692307692,167.72466666666668)"></path><path class="point" clip-path="url(#chart-clipPath-buffer)" visibility="hidden" transform="translate(341.010989010989,181.356)"></path><path class="point" clip-path="url(#chart-clipPath-buffer)" visibility="hidden" transform="translate(347.7912087912088,178.90066666666667)"></path><path class="point" clip-path="url(#chart-clipPath-buffer)" visibility="hidden" transform="translate(354.57142857142856,183.47266666666667)"></path><path class="point" clip-path="url(#chart-clipPath-buffer)" visibility="hidden" transform="translate(361.35164835164835,195.58)"></path><path class="point" clip-path="url(#chart-clipPath-buffer)" visibility="hidden" transform="translate(368.13186813186815,200.32133333333334)"></path><path class="point" clip-path="url(#chart-clipPath-buffer)" visibility="hidden" transform="translate(374.9120879120879,203.2)"></path><path class="point" clip-path="url(#chart-clipPath-buffer)" visibility="hidden" transform="translate(381.69230769230774,216.23866666666666)"></path><path class="point" clip-path="url(#chart-clipPath-buffer)" visibility="hidden" transform="translate(388.4725274725275,216.916)"></path><path class="point" clip-path="url(#chart-clipPath-buffer)" visibility="hidden" transform="translate(395.25274725274727,217.17000000000002)"></path><path class="point" clip-path="url(#chart-clipPath-buffer)" visibility="hidden" transform="translate(402.03296703296706,211.49733333333333)"></path><path class="point" clip-path="url(#chart-clipPath-buffer)" visibility="hidden" transform="translate(408.8131868131868,205.31666666666666)"></path><path class="point" clip-path="url(#chart-clipPath-buffer)" visibility="hidden" transform="translate(415.59340659340666,200.49066666666667)"></path><path class="point" clip-path="url(#chart-clipPath-buffer)" visibility="hidden" transform="translate(422.3736263736264,187.95999999999998)"></path><path class="point" clip-path="url(#chart-clipPath-buffer)" visibility="hidden" transform="translate(429.15384615384613,189.39933333333335)"></path><path class="point" clip-path="url(#chart-clipPath-buffer)" visibility="hidden" transform="translate(435.934065934066,186.18200000000002)"></path><path class="point" clip-path="url(#chart-clipPath-buffer)" visibility="hidden" transform="translate(442.7142857142857,188.46800000000002)"></path><path class="point" clip-path="url(#chart-clipPath-buffer)" visibility="hidden" transform="translate(449.49450549450546,201.676)"></path><path class="point" clip-path="url(#chart-clipPath-buffer)" visibility="hidden" transform="translate(456.2747252747253,177.12266666666667)"></path><path class="point" clip-path="url(#chart-clipPath-buffer)" visibility="hidden" transform="translate(463.05494505494505,160.01999999999998)"></path><path class="point" clip-path="url(#chart-clipPath-buffer)" visibility="hidden" transform="translate(469.8351648351648,172.72)"></path><path class="point" clip-path="url(#chart-clipPath-buffer)" visibility="hidden" transform="translate(476.61538461538464,167.97866666666667)"></path><path class="point" clip-path="url(#chart-clipPath-buffer)" visibility="hidden" transform="translate(483.3956043956044,169.24866666666668)"></path><path class="point" clip-path="url(#chart-clipPath-buffer)" visibility="hidden" transform="translate(490.1758241758242,174.32866666666666)"></path><path class="point" clip-path="url(#chart-clipPath-buffer)" visibility="hidden" transform="translate(496.95604395604397,183.642)"></path><path class="point" clip-path="url(#chart-clipPath-buffer)" visibility="hidden" transform="translate(503.7362637362637,211.49733333333333)"></path><path class="point" clip-path="url(#chart-clipPath-buffer)" visibility="hidden" transform="translate(510.51648351648356,196.17266666666666)"></path><path class="point" clip-path="url(#chart-clipPath-buffer)" visibility="hidden" transform="translate(517.2967032967033,186.52066666666667)"></path><path class="point" clip-path="url(#chart-clipPath-buffer)" visibility="hidden" transform="translate(524.0769230769231,191.77)"></path><path class="point" clip-path="url(#chart-clipPath-buffer)" visibility="hidden" transform="translate(530.8571428571429,195.74933333333334)"></path><path class="point" clip-path="url(#chart-clipPath-buffer)" visibility="hidden" transform="translate(537.6373626373627,178.562)"></path><path class="point" clip-path="url(#chart-clipPath-buffer)" visibility="hidden" transform="translate(544.4175824175824,167.97866666666667)"></path><path class="point" clip-path="url(#chart-clipPath-buffer)" visibility="hidden" transform="translate(551.1978021978023,153.07733333333334)"></path><path class="point" clip-path="url(#chart-clipPath-buffer)" visibility="hidden" transform="translate(557.978021978022,165.35399999999998)"></path><path class="point" clip-path="url(#chart-clipPath-buffer)" visibility="hidden" transform="translate(564.7582417582418,153.83933333333334)"></path><path class="point" clip-path="url(#chart-clipPath-buffer)" visibility="hidden" transform="translate(571.5384615384615,163.06799999999998)"></path><path class="point" clip-path="url(#chart-clipPath-buffer)" visibility="hidden" transform="translate(578.3186813186813,163.99933333333334)"></path><path class="point" clip-path="url(#chart-clipPath-buffer)" visibility="hidden" transform="translate(585.0989010989011,162.22133333333335)"></path><path class="point" clip-path="url(#chart-clipPath-buffer)" visibility="hidden" transform="translate(591.8791208791209,161.798)"></path><path class="point" clip-path="url(#chart-clipPath-buffer)" visibility="hidden" transform="translate(598.6593406593406,133.9426666666667)"></path><path class="point" clip-path="url(#chart-clipPath-buffer)" visibility="hidden" transform="translate(605.4395604395604,118.02533333333332)"></path><path class="point" clip-path="url(#chart-clipPath-buffer)" visibility="hidden" transform="translate(612.2197802197802,134.87400000000002)"></path><path class="point" clip-path="url(#chart-clipPath-buffer)" visibility="hidden" transform="translate(619,141.986)"></path></g></g><g class="axes"><g class="axis-labels"><g class="right"><g class="label" transform="translate(681,128)"><text style="text-anchor: middle; font-family: Arial; font-size: 12px; " fill="rgb(102, 102, 102)" dy="12" transform="rotate(90)"></text></g></g><g class="left"><g class="label" transform="translate(-69,128)"><text style="text-anchor: middle; font-family: Arial; font-size: 16px; " fill="rgb(102, 102, 102)" dy="16" transform="rotate(270)"></text></g></g><g class="bottom"><g class="label" transform="translate(310.5,306.0429382324219)"><text style="text-anchor: middle; font-family: Arial; font-size: 16px; " fill="rgb(102, 102, 102)" dy="16" transform="rotate(0)">Date</text></g></g></g><g class="axis right" transform="translate(620,0)"><g class="tick major" style="opacity: 1; display: block; " transform="translate(0,254)"><line x2="7" y2="0"></line><text x="10" y="0" dy="6" style="fill: #666666; fill-opacity: 1; font-family: Arial; font-size: 12px; text-anchor: start; " transform="rotate(0, 10, 0)translate(0,0)" data-org-x="10" data-org-y="0">0</text></g><g class="tick major" style="opacity: 1; display: block; " transform="translate(0,211.66666666666669)"><line x2="7" y2="0"></line><text x="10" y="0" dy="6" style="fill: #666666; fill-opacity: 1; font-family: Arial; font-size: 12px; text-anchor: start; " transform="rotate(0, 10, 0)translate(0,0)" data-org-x="10" data-org-y="0">500</text></g><g class="tick major" style="opacity: 1; display: block; " transform="translate(0,169.33333333333334)"><line x2="7" y2="0"></line><text x="10" y="0" dy="6" style="fill: #666666; fill-opacity: 1; font-family: Arial; font-size: 12px; text-anchor: start; " transform="rotate(0, 10, 0)translate(0,0)" data-org-x="10" data-org-y="0">1000</text></g><g class="tick major" style="opacity: 1; display: block; " transform="translate(0,127)"><line x2="7" y2="0"></line><text x="10" y="0" dy="6" style="fill: #666666; fill-opacity: 1; font-family: Arial; font-size: 12px; text-anchor: start; " transform="rotate(0, 10, 0)translate(0,0)" data-org-x="10" data-org-y="0">1500</text></g><g class="tick major" style="opacity: 1; display: block; " transform="translate(0,84.66666666666669)"><line x2="7" y2="0"></line><text x="10" y="0" dy="6" style="fill: #666666; fill-opacity: 1; font-family: Arial; font-size: 12px; text-anchor: start; " transform="rotate(0, 10, 0)translate(0,0)" data-org-x="10" data-org-y="0">2000</text></g><g class="tick major" style="opacity: 1; display: block; " transform="translate(0,42.33333333333334)"><line x2="7" y2="0"></line><text x="10" y="0" dy="6" style="fill: #666666; fill-opacity: 1; font-family: Arial; font-size: 12px; text-anchor: start; " transform="rotate(0, 10, 0)translate(0,0)" data-org-x="10" data-org-y="0">2500</text></g><g class="tick major" style="opacity: 1; display: block; " transform="translate(0,0)"><line x2="7" y2="0"></line><text x="10" y="0" dy="6" style="fill: #666666; fill-opacity: 1; font-family: Arial; font-size: 12px; text-anchor: start; " transform="rotate(0, 10, 0)translate(0,0)" data-org-x="10" data-org-y="0">3000</text></g><path class="domain" d="M0,0H0V254H0" stroke-width="2" fill="none" stroke="rgb(188, 188, 188)" stroke-opacity="1"></path></g><g class="axis left" transform="translate(1,0)"><g class="tick major" style="opacity: 1; display: block; " transform="translate(0,254)"><line x2="-7" y2="0"></line><text x="-10" y="0" dy="7" style="fill: #666666; fill-opacity: 1; font-family: Arial; font-size: 14px; text-anchor: end; " transform="rotate(0, -10, 0)translate(0,0)" data-org-x="-10" data-org-y="0">0</text></g><g class="tick major" style="opacity: 1; display: block; " transform="translate(0,211.66666666666666)"><line x2="-7" y2="0"></line><text x="-10" y="0" dy="7" style="fill: #666666; fill-opacity: 1; font-family: Arial; font-size: 14px; text-anchor: end; " transform="rotate(0, -10, 0)translate(0,0)" data-org-x="-10" data-org-y="0">20K</text></g><g class="tick major" style="opacity: 1; display: block; " transform="translate(0,169.33333333333331)"><line x2="-7" y2="0"></line><text x="-10" y="0" dy="7" style="fill: #666666; fill-opacity: 1; font-family: Arial; font-size: 14px; text-anchor: end; " transform="rotate(0, -10, 0)translate(0,0)" data-org-x="-10" data-org-y="0">40K</text></g><g class="tick major" style="opacity: 1; display: block; " transform="translate(0,127)"><line x2="-7" y2="0"></line><text x="-10" y="0" dy="7" style="fill: #666666; fill-opacity: 1; font-family: Arial; font-size: 14px; text-anchor: end; " transform="rotate(0, -10, 0)translate(0,0)" data-org-x="-10" data-org-y="0">60K</text></g><g class="tick major" style="opacity: 1; display: block; " transform="translate(0,84.66666666666666)"><line x2="-7" y2="0"></line><text x="-10" y="0" dy="7" style="fill: #666666; fill-opacity: 1; font-family: Arial; font-size: 14px; text-anchor: end; " transform="rotate(0, -10, 0)translate(0,0)" data-org-x="-10" data-org-y="0">80K</text></g><g class="tick major" style="opacity: 1; display: block; " transform="translate(0,42.333333333333314)"><line x2="-7" y2="0"></line><text x="-10" y="0" dy="7" style="fill: #666666; fill-opacity: 1; font-family: Arial; font-size: 14px; text-anchor: end; " transform="rotate(0, -10, 0)translate(0,0)" data-org-x="-10" data-org-y="0">100K</text></g><g class="tick major" style="opacity: 1; display: block; " transform="translate(0,0)"><line x2="-7" y2="0"></line><text x="-10" y="0" dy="7" style="fill: #666666; fill-opacity: 1; font-family: Arial; font-size: 14px; text-anchor: end; " transform="rotate(0, -10, 0)translate(0,0)" data-org-x="-10" data-org-y="0">120K</text></g><path class="domain" d="M0,0H0V254H0" stroke-width="2" fill="none" stroke="rgb(188, 188, 188)" stroke-opacity="1"></path></g><g class="axis bottom" transform="translate(0,255)"><g class="tick major" style="opacity: 1; display: block; " transform="translate(23.5962555962556,0)"><line y2="7" x2="0"></line><text y="10" x="0" dy="7" style="fill: #666666; fill-opacity: 1; font-family: Arial; font-size: 14px; text-anchor: start; " transform="rotate(60, 0, 10)translate(0,0)" data-org-x="0" data-org-y="10">11-04</text></g><g class="tick major" style="opacity: 1; display: block; " transform="translate(62.83363858363858,0)"><line y2="7" x2="0"></line><text y="10" x="0" dy="7" style="fill: #666666; fill-opacity: 1; font-family: Arial; font-size: 14px; text-anchor: start; " transform="rotate(60, 0, 10)translate(0,0)" data-org-x="0" data-org-y="10">11-09</text></g><g class="tick major" style="opacity: 1; display: block; " transform="translate(102.07102157102157,0)"><line y2="7" x2="0"></line><text y="10" x="0" dy="7" style="fill: #666666; fill-opacity: 1; font-family: Arial; font-size: 14px; text-anchor: start; " transform="rotate(60, 0, 10)translate(0,0)" data-org-x="0" data-org-y="10">11-15</text></g><g class="tick major" style="opacity: 1; display: block; " transform="translate(141.30840455840456,0)"><line y2="7" x2="0"></line><text y="10" x="0" dy="7" style="fill: #666666; fill-opacity: 1; font-family: Arial; font-size: 14px; text-anchor: start; " transform="rotate(60, 0, 10)translate(0,0)" data-org-x="0" data-org-y="10">11-21</text></g><g class="tick major" style="opacity: 1; display: block; " transform="translate(180.54578754578756,0)"><line y2="7" x2="0"></line><text y="10" x="0" dy="7" style="fill: #666666; fill-opacity: 1; font-family: Arial; font-size: 14px; text-anchor: start; " transform="rotate(60, 0, 10)translate(0,0)" data-org-x="0" data-org-y="10">11-27</text></g><g class="tick major" style="opacity: 1; display: block; " transform="translate(219.78317053317053,0)"><line y2="7" x2="0"></line><text y="10" x="0" dy="7" style="fill: #666666; fill-opacity: 1; font-family: Arial; font-size: 14px; text-anchor: start; " transform="rotate(60, 0, 10)translate(0,0)" data-org-x="0" data-org-y="10">12-03</text></g><g class="tick major" style="opacity: 1; display: block; " transform="translate(259.0205535205535,0)"><line y2="7" x2="0"></line><text y="10" x="0" dy="7" style="fill: #666666; fill-opacity: 1; font-family: Arial; font-size: 14px; text-anchor: start; " transform="rotate(60, 0, 10)translate(0,0)" data-org-x="0" data-org-y="10">12-08</text></g><g class="tick major" style="opacity: 1; display: block; " transform="translate(298.2579365079365,0)"><line y2="7" x2="0"></line><text y="10" x="0" dy="7" style="fill: #666666; fill-opacity: 1; font-family: Arial; font-size: 14px; text-anchor: start; " transform="rotate(60, 0, 10)translate(0,0)" data-org-x="0" data-org-y="10">12-14</text></g><g class="tick major" style="opacity: 1; display: block; " transform="translate(337.4953194953195,0)"><line y2="7" x2="0"></line><text y="10" x="0" dy="7" style="fill: #666666; fill-opacity: 1; font-family: Arial; font-size: 14px; text-anchor: start; " transform="rotate(60, 0, 10)translate(0,0)" data-org-x="0" data-org-y="10">12-20</text></g><g class="tick major" style="opacity: 1; display: block; " transform="translate(376.73270248270245,0)"><line y2="7" x2="0"></line><text y="10" x="0" dy="7" style="fill: #666666; fill-opacity: 1; font-family: Arial; font-size: 14px; text-anchor: start; " transform="rotate(60, 0, 10)translate(0,0)" data-org-x="0" data-org-y="10">12-26</text></g><g class="tick major" style="opacity: 1; display: block; " transform="translate(415.9700854700855,0)"><line y2="7" x2="0"></line><text y="10" x="0" dy="7" style="fill: #666666; fill-opacity: 1; font-family: Arial; font-size: 14px; text-anchor: start; " transform="rotate(60, 0, 10)translate(0,0)" data-org-x="0" data-org-y="10">01-01</text></g><g class="tick major" style="opacity: 1; display: block; " transform="translate(455.20746845746845,0)"><line y2="7" x2="0"></line><text y="10" x="0" dy="7" style="fill: #666666; fill-opacity: 1; font-family: Arial; font-size: 14px; text-anchor: start; " transform="rotate(60, 0, 10)translate(0,0)" data-org-x="0" data-org-y="10">01-06</text></g><g class="tick major" style="opacity: 1; display: block; " transform="translate(494.44485144485145,0)"><line y2="7" x2="0"></line><text y="10" x="0" dy="7" style="fill: #666666; fill-opacity: 1; font-family: Arial; font-size: 14px; text-anchor: start; " transform="rotate(60, 0, 10)translate(0,0)" data-org-x="0" data-org-y="10">01-12</text></g><g class="tick major" style="opacity: 1; display: block; " transform="translate(533.6822344322345,0)"><line y2="7" x2="0"></line><text y="10" x="0" dy="7" style="fill: #666666; fill-opacity: 1; font-family: Arial; font-size: 14px; text-anchor: start; " transform="rotate(60, 0, 10)translate(0,0)" data-org-x="0" data-org-y="10">01-18</text></g><g class="tick major" style="opacity: 1; display: block; " transform="translate(572.9196174196175,0)"><line y2="7" x2="0"></line><text y="10" x="0" dy="7" style="fill: #666666; fill-opacity: 1; font-family: Arial; font-size: 14px; text-anchor: start; " transform="rotate(60, 0, 10)translate(0,0)" data-org-x="0" data-org-y="10">01-24</text></g><g class="tick major" style="opacity: 1; display: block; " transform="translate(612.1570004070004,0)"><line y2="7" x2="0"></line><text y="10" x="0" dy="7" style="fill: #666666; fill-opacity: 1; font-family: Arial; font-size: 14px; text-anchor: start; " transform="rotate(60, 0, 10)translate(0,0)" data-org-x="0" data-org-y="10">01-29</text></g><path class="domain" d="M2,0V0H619V0" stroke-width="2" fill="none" stroke="rgb(188, 188, 188)" stroke-opacity="1"></path><path class="filler" d="M0,0V0H2V0" stroke-width="2" fill="none" stroke="rgb(188, 188, 188)" stroke-opacity="1"></path></g></g></g><g class="label" transform="translate(25,25)"><text style="text-anchor: start; font-family: Arial; font-size: 22px; " fill="rgb(102, 102, 102)" dy="22" transform="rotate(0)">Number of Heroes (Jan 31)</text></g><g class="legend" transform="translate(293.1013488769531,25)"><g class="row" transform="translate(0,0)"><text class="key" style="font-size: 14px; fill: #666666; fill-opacity: 1; " dx="28" dy="14">Total Heroes</text><path class="shape" d="M0,7.898654169668588A7.898654169668588,7.898654169668588 0 1,1 0,-7.898654169668588A7.898654169668588,7.898654169668588 0 1,1 0,7.898654169668588Z" style="fill: #003492; fill-opacity: 1; " transform="translate(14,9.24)"></path></g><g class="row" transform="translate(116.89865112304688,0)"><text class="key" style="font-size: 14px; fill: #666666; fill-opacity: 1; " dx="28" dy="14">New Heroes</text><path class="shape" d="M0,7.898654169668588A7.898654169668588,7.898654169668588 0 1,1 0,-7.898654169668588A7.898654169668588,7.898654169668588 0 1,1 0,7.898654169668588Z" style="fill: #f56991; fill-opacity: 1; " transform="translate(14,9.24)"></path></g></g></g></svg>