<?xml version="1.0" encoding="UTF-8" standalone="no"?>
<svg version="1.1" xmlns="http://www.w3.org/2000/svg" style="font-family: Arial; " width="800" height="450" viewBox="0 0 800 450"><title>Heroes by Level (Jan 31)</title><defs><clipPath id="chart-clipPath-exact"><rect height="281" width="689"></rect></clipPath><clipPath id="chart-clipPath-buffer"><rect x="-10" y="-10" height="301" width="709"></rect></clipPath></defs><g class="scaler"><rect width="800" height="450" fill="rgb(255, 255, 255)" fill-opacity="1"></rect><g class="canvas" transform="translate(86,72)"><g class="grid"><g class="axis-grid x" transform="translate(0,280)"></g><g class="axis-grid y" transform="translate(1,0)"></g><g class="axis-grid y2" transform="translate(688.5,0)"></g><g class="axis-grid x2" transform="translate(0,1)"></g></g><rect class="trigger-layer" height="354" width="724" opacity="0"></rect><g class="chart"><g class="series s0"><path class="point" clip-path="url(#chart-clipPath-buffer)" stroke="rgb(0, 52, 146)" stroke-opacity="1" fill="rgb(0, 52, 146)" fill-opacity="1" visibility="visible" d="M0,8.462843753216344A8.462843753216344,8.462843753216344 0 1,1 0,-8.462843753216344A8.462843753216344,8.462843753216344 0 1,1 0,8.462843753216344Z" transform="translate(2,42.876000000000005)"></path><path class="point" clip-path="url(#chart-clipPath-buffer)" stroke="rgb(181, 190, 3)" stroke-opacity="1" fill="rgb(181, 190, 3)" fill-opacity="1" visibility="visible" d="M0,8.462843753216344A8.462843753216344,8.462843753216344 0 1,1 0,-8.462843753216344A8.462843753216344,8.462843753216344 0 1,1 0,8.462843753216344Z" transform="translate(78.33333333333333,40.31099999999998)"></path><path class="point" clip-path="url(#chart-clipPath-buffer)" stroke="rgb(255, 212, 56)" stroke-opacity="1" fill="rgb(255, 212, 56)" fill-opacity="1" visibility="visible" d="M0,8.462843753216344A8.462843753216344,8.462843753216344 0 1,1 0,-8.462843753216344A8.462843753216344,8.462843753216344 0 1,1 0,8.462843753216344Z" transform="translate(154.66666666666666,4.6440000000000055)"></path><path class="point" clip-path="url(#chart-clipPath-buffer)" stroke="rgb(255, 138, 2)" stroke-opacity="1" fill="rgb(255, 138, 2)" fill-opacity="1" visibility="visible" d="M0,8.462843753216344A8.462843753216344,8.462843753216344 0 1,1 0,-8.462843753216344A8.462843753216344,8.462843753216344 0 1,1 0,8.462843753216344Z" transform="translate(231,59.075999999999965)"></path><path class="point" clip-path="url(#chart-clipPath-buffer)" stroke="rgb(67, 206, 235)" stroke-opacity="1" fill="rgb(67, 206, 235)" fill-opacity="1" visibility="visible" d="M0,8.462843753216344A8.462843753216344,8.462843753216344 0 1,1 0,-8.462843753216344A8.462843753216344,8.462843753216344 0 1,1 0,8.462843753216344Z" transform="translate(307.3333333333333,234.126)"></path><path class="point" clip-path="url(#chart-clipPath-buffer)" stroke="rgb(216, 10, 82)" stroke-opacity="1" fill="rgb(216, 10, 82)" fill-opacity="1" visibility="visible" d="M0,8.462843753216344A8.462843753216344,8.462843753216344 0 1,1 0,-8.462843753216344A8.462843753216344,8.462843753216344 0 1,1 0,8.462843753216344Z" transform="translate(383.6666666666667,278.622)"></path><path class="point" clip-path="url(#chart-clipPath-buffer)" stroke="rgb(0, 52, 146)" stroke-opacity="1" fill="rgb(0, 52, 146)" fill-opacity="1" visibility="visible" d="M0,8.462843753216344A8.462843753216344,8.462843753216344 0 1,1 0,-8.462843753216344A8.462843753216344,8.462843753216344 0 1,1 0,8.462843753216344Z" transform="translate(460,278.946)"></path><path class="point" clip-path="url(#chart-clipPath-buffer)" stroke="rgb(181, 190, 3)" stroke-opacity="1" fill="rgb(181, 190, 3)" fill-opacity="1" visibility="visible" d="M0,8.462843753216344A8.462843753216344,8.462843753216344 0 1,1 0,-8.462843753216344A8.462843753216344,8.462843753216344 0 1,1 0,8.462843753216344Z" transform="translate(536.3333333333333,278.982)"></path><path class="point" clip-path="url(#chart-clipPath-buffer)" stroke="rgb(255, 212, 56)" stroke-opacity="1" fill="rgb(255, 212, 56)" fill-opacity="1" visibility="visible" d="M0,8.462843753216344A8.462843753216344,8.462843753216344 0 1,1 0,-8.462843753216344A8.462843753216344,8.462843753216344 0 1,1 0,8.462843753216344Z" transform="translate(612.6666666666666,278.991)"></path><path class="point" clip-path="url(#chart-clipPath-buffer)" stroke="rgb(255, 138, 2)" stroke-opacity="1" fill="rgb(255, 138, 2)" fill-opacity="1" visibility="visible" d="M0,8.462843753216344A8.462843753216344,8.462843753216344 0 1,1 0,-8.462843753216344A8.462843753216344,8.462843753216344 0 1,1 0,8.462843753216344Z" transform="translate(689,278.937)"></path></g></g><g class="axes"><g class="axis-labels"><g class="bottom"><g class="label" transform="translate(344.5,307)"><text style="text-anchor: middle; font-family: Arial; font-size: 16px; " fill="rgb(102, 102, 102)" dy="16" transform="rotate(0)">Hero Level</text></g></g><g class="left"><g class="label" transform="translate(-61,140.5)"><text style="text-anchor: middle; font-family: Arial; font-size: 16px; " fill="rgb(102, 102, 102)" dy="16" transform="rotate(270)"></text></g></g></g><g class="axis bottom" transform="translate(0,280)"><g class="tick major" style="opacity: 1; display: block; " transform="translate(78.33333333333333,0)"><line y2="7" x2="0"></line><text y="10" x="0" dy="7" style="fill: #666666; fill-opacity: 1; font-family: Arial; font-size: 14px; text-anchor: middle; " transform="rotate(0, 0, 10)translate(0,0)" data-org-x="0" data-org-y="10">2</text></g><g class="tick major" style="opacity: 1; display: block; " transform="translate(231,0)"><line y2="7" x2="0"></line><text y="10" x="0" dy="7" style="fill: #666666; fill-opacity: 1; font-family: Arial; font-size: 14px; text-anchor: middle; " transform="rotate(0, 0, 10)translate(0,0)" data-org-x="0" data-org-y="10">4</text></g><g class="tick major" style="opacity: 1; display: block; " transform="translate(383.6666666666667,0)"><line y2="7" x2="0"></line><text y="10" x="0" dy="7" style="fill: #666666; fill-opacity: 1; font-family: Arial; font-size: 14px; text-anchor: middle; " transform="rotate(0, 0, 10)translate(0,0)" data-org-x="0" data-org-y="10">6</text></g><g class="tick major" style="opacity: 1; display: block; " transform="translate(536.3333333333333,0)"><line y2="7" x2="0"></line><text y="10" x="0" dy="7" style="fill: #666666; fill-opacity: 1; font-family: Arial; font-size: 14px; text-anchor: middle; " transform="rotate(0, 0, 10)translate(0,0)" data-org-x="0" data-org-y="10">8</text></g><g class="tick major" style="opacity: 1; display: block; " transform="translate(689,0)"><line y2="7" x2="0"></line><text y="10" x="0" dy="7" style="fill: #666666; fill-opacity: 1; font-family: Arial; font-size: 14px; text-anchor: middle; " transform="rotate(0, 0, 10)translate(0,0)" data-org-x="0" data-org-y="10">10</text></g><path class="domain" d="M2,0V0H689V0" stroke-width="2" fill="none" stroke="rgb(188, 188, 188)" stroke-opacity="1"></path><path class="filler" d="M0,0V0H2V0" stroke-width="2" fill="none" stroke="rgb(188, 188, 188)" stroke-opacity="1"></path></g><g class="axis left" transform="translate(1,0)"><g class="tick major" style="opacity: 1; display: block; " transform="translate(0,279)"><line x2="-7" y2="0"></line><text x="-10" y="0" dy="7" style="fill: #666666; fill-opacity: 1; font-family: Arial; font-size: 14px; text-anchor: end; " transform="rotate(0, -10, 0)translate(0,0)" data-org-x="-10" data-org-y="0">0</text></g><g class="tick major" style="opacity: 1; display: block; " transform="translate(0,234)"><line x2="-7" y2="0"></line><text x="-10" y="0" dy="7" style="fill: #666666; fill-opacity: 1; font-family: Arial; font-size: 14px; text-anchor: end; " transform="rotate(0, -10, 0)translate(0,0)" data-org-x="-10" data-org-y="0">5K</text></g><g class="tick major" style="opacity: 1; display: block; " transform="translate(0,189)"><line x2="-7" y2="0"></line><text x="-10" y="0" dy="7" style="fill: #666666; fill-opacity: 1; font-family: Arial; font-size: 14px; text-anchor: end; " transform="rotate(0, -10, 0)translate(0,0)" data-org-x="-10" data-org-y="0">10K</text></g><g class="tick major" style="opacity: 1; display: block; " transform="translate(0,144)"><line x2="-7" y2="0"></line><text x="-10" y="0" dy="7" style="fill: #666666; fill-opacity: 1; font-family: Arial; font-size: 14px; text-anchor: end; " transform="rotate(0, -10, 0)translate(0,0)" data-org-x="-10" data-org-y="0">15K</text></g><g class="tick major" style="opacity: 1; display: block; " transform="translate(0,99)"><line x2="-7" y2="0"></line><text x="-10" y="0" dy="7" style="fill: #666666; fill-opacity: 1; font-family: Arial; font-size: 14px; text-anchor: end; " transform="rotate(0, -10, 0)translate(0,0)" data-org-x="-10" data-org-y="0">20K</text></g><g class="tick major" style="opacity: 1; display: block; " transform="translate(0,53.99999999999997)"><line x2="-7" y2="0"></line><text x="-10" y="0" dy="7" style="fill: #666666; fill-opacity: 1; font-family: Arial; font-size: 14px; text-anchor: end; " transform="rotate(0, -10, 0)translate(0,0)" data-org-x="-10" data-org-y="0">25K</text></g><g class="tick major" style="opacity: 1; display: block; " transform="translate(0,9)"><line x2="-7" y2="0"></line><text x="-10" y="0" dy="7" style="fill: #666666; fill-opacity: 1; font-family: Arial; font-size: 14px; text-anchor: end; " transform="rotate(0, -10, 0)translate(0,0)" data-org-x="-10" data-org-y="0">30K</text></g><path class="domain" d="M0,0H0V279H0" stroke-width="2" fill="none" stroke="rgb(188, 188, 188)" stroke-opacity="1"></path></g></g></g><g class="label" transform="translate(25,25)"><text style="text-anchor: start; font-family: Arial; font-size: 22px; " fill="rgb(102, 102, 102)" dy="22" transform="rotate(0)">Heroes by Level (Jan 31)</text></g></g></svg>